<?xml version="1.0" encoding="iso-8859-1"?>
<!-- Uploaded to: SVG Repo, www.svgrepo.com, Generator: SVG Repo Mixer Tools -->
<svg fill="#000000" height="800px" width="800px" version="1.1" id="Layer_1" xmlns="http://www.w3.org/2000/svg" xmlns:xlink="http://www.w3.org/1999/xlink" 
	 viewBox="0 0 512 512" xml:space="preserve">
<g>
	<g>
		<circle cx="435.2" cy="345.6" r="25.6"/>
	</g>
</g>
<g>
	<g>
		<circle cx="358.4" cy="345.6" r="25.6"/>
	</g>
</g>
<g>
	<g>
		<path d="M460.8,89.6H51.2C22.921,89.6,0,112.52,0,140.8v230.4c0,28.279,22.921,51.2,51.2,51.2h409.6
			c28.279,0,51.2-22.921,51.2-51.2V140.8C512,112.52,489.079,89.6,460.8,89.6z M486.4,371.2c0,14.114-11.486,25.6-25.6,25.6H51.2
			c-14.114,0-25.6-11.486-25.6-25.6v-128h460.8V371.2z M486.4,217.6H25.6V192h460.8V217.6z M486.4,166.4H25.6v-25.6
			c0-14.114,11.486-25.6,25.6-25.6h409.6c14.114,0,25.6,11.486,25.6,25.6V166.4z"/>
	</g>
</g>
</svg>